<svg width="14" height="12" viewBox="0 0 14 12" fill="none" xmlns="http://www.w3.org/2000/svg">
	<path fill-rule="evenodd" clip-rule="evenodd"
		d="M2.99878 1C2.99878 0.45 2.54878 0 1.99878 0C1.44878 0 0.998779 0.45 0.998779 1V11C0.998779 11.55 1.44878 12 1.99878 12C2.54878 12 2.99878 11.55 2.99878 11V1ZM8.81878 6L12.6988 9.89C13.0888 10.27 13.0888 10.91 12.7088 11.29C12.3188 11.68 11.6888 11.68 11.2988 11.29L6.70878 6.7C6.31878 6.31 6.31878 5.68 6.70878 5.29L11.2988 0.7C11.4856 0.512747 11.7393 0.407514 12.0038 0.407514C12.2683 0.407514 12.5219 0.512747 12.7088 0.7C13.0988 1.09 13.0988 1.72 12.7088 2.11L8.81878 6Z"
		fill="#392F5A" />
</svg>