<svg width="10" height="9" viewBox="0 0 10 9" fill="none" xmlns="http://www.w3.org/2000/svg">
	<path
		d="M9.19998 0.306668C9.07543 0.181833 8.90633 0.111678 8.72998 0.111678C8.55364 0.111678 8.38454 0.181833 8.25998 0.306668L4.99998 3.56L1.73998 0.300001C1.61543 0.175166 1.44633 0.105011 1.26998 0.105011C1.09364 0.105011 0.924535 0.175166 0.79998 0.300001C0.53998 0.560001 0.53998 0.980001 0.79998 1.24L4.05998 4.5L0.79998 7.76C0.53998 8.02 0.53998 8.44 0.79998 8.7C1.05998 8.96 1.47998 8.96 1.73998 8.7L4.99998 5.44L8.25998 8.7C8.51998 8.96 8.93998 8.96 9.19998 8.7C9.45998 8.44 9.45998 8.02 9.19998 7.76L5.93998 4.5L9.19998 1.24C9.45331 0.986668 9.45331 0.560001 9.19998 0.306668Z"
		fill="white" />
</svg>