<svg width="10" height="13" viewBox="0 0 10 13" fill="none" xmlns="http://www.w3.org/2000/svg">
	<path fill-rule="evenodd" clip-rule="evenodd"
		d="M7.33325 1.16667H8.99992C9.36659 1.16667 9.66659 1.46667 9.66659 1.83333C9.66659 2.2 9.36659 2.5 8.99992 2.5H0.999919C0.633252 2.5 0.333252 2.2 0.333252 1.83333C0.333252 1.46667 0.633252 1.16667 0.999919 1.16667H2.66659L3.13992 0.693333C3.25992 0.573333 3.43325 0.5 3.60659 0.5H6.39325C6.56659 0.5 6.73992 0.573333 6.85992 0.693333L7.33325 1.16667ZM2.33325 12.5C1.59992 12.5 0.999919 11.9 0.999919 11.1667V4.5C0.999919 3.76667 1.59992 3.16667 2.33325 3.16667H7.66659C8.39992 3.16667 8.99992 3.76667 8.99992 4.5V11.1667C8.99992 11.9 8.39992 12.5 7.66659 12.5H2.33325Z"
		fill="#DC2B2B" />
</svg>