<svg width="10" height="13" viewBox="0 0 10 13" fill="none" xmlns="http://www.w3.org/2000/svg">
	<path fill-rule="evenodd" clip-rule="evenodd"
		d="M7.33331 1.16667H8.99998C9.36665 1.16667 9.66665 1.46667 9.66665 1.83333C9.66665 2.2 9.36665 2.5 8.99998 2.5H0.99998C0.633313 2.5 0.333313 2.2 0.333313 1.83333C0.333313 1.46667 0.633313 1.16667 0.99998 1.16667H2.66665L3.13998 0.693333C3.25998 0.573333 3.43331 0.5 3.60665 0.5H6.39331C6.56665 0.5 6.73998 0.573333 6.85998 0.693333L7.33331 1.16667ZM2.33331 12.5C1.59998 12.5 0.99998 11.9 0.99998 11.1667V4.5C0.99998 3.76667 1.59998 3.16667 2.33331 3.16667H7.66665C8.39998 3.16667 8.99998 3.76667 8.99998 4.5V11.1667C8.99998 11.9 8.39998 12.5 7.66665 12.5H2.33331Z"
		fill="white" />
</svg>