<svg width="15" height="14" viewBox="0 0 15 14" fill="none" xmlns="http://www.w3.org/2000/svg">
<path fill-rule="evenodd" clip-rule="evenodd" d="M14.3751 5.60271H7.64791C7.64791 6.30231 7.64791 7.70152 7.64362 8.40113H11.5418C11.3925 9.10074 10.8628 10.0802 10.1145 10.5734C10.1138 10.5727 10.1131 10.5776 10.1116 10.5769C9.11671 11.2338 7.80372 11.3829 6.82881 11.187C5.30069 10.8833 4.09134 9.77516 3.60032 8.36755C3.60317 8.36545 3.60532 8.34586 3.60746 8.34446C3.30012 7.47135 3.30012 6.30231 3.60746 5.60271H3.60675C4.00272 4.31683 5.24851 3.14359 6.77878 2.82247C8.00957 2.56152 9.39832 2.84416 10.4197 3.79982C10.5555 3.6669 12.2995 1.96405 12.4303 1.82553C8.94088 -1.33459 3.35373 -0.222915 1.2631 3.85789H1.26239C1.26239 3.85789 1.2631 3.85789 1.25882 3.86558C0.224582 5.86996 0.267466 8.23183 1.26596 10.1404C1.2631 10.1425 1.26096 10.1438 1.25882 10.1459C2.16368 11.902 3.81045 13.2487 5.79458 13.7615C7.90236 14.3142 10.5848 13.9364 12.3817 12.3112C12.3824 12.3119 12.3831 12.3126 12.3838 12.3133C13.9062 10.9421 14.854 8.60612 14.3751 5.60271Z" fill="#392F5A"/>
</svg>
