<svg width="12" height="12" viewBox="0 0 12 12" fill="none" xmlns="http://www.w3.org/2000/svg">
	<path
		d="M6 0.5C4.91221 0.5 3.84884 0.822569 2.94437 1.42692C2.0399 2.03126 1.33495 2.89025 0.918665 3.89524C0.502383 4.90023 0.393465 6.0061 0.605683 7.073C0.817902 8.13989 1.34173 9.1199 2.11092 9.88909C2.8801 10.6583 3.86011 11.1821 4.92701 11.3943C5.9939 11.6065 7.09977 11.4976 8.10476 11.0813C9.10976 10.6651 9.96874 9.96011 10.5731 9.05564C11.1774 8.15117 11.5 7.0878 11.5 6C11.5 4.54131 10.9205 3.14236 9.88909 2.11091C8.85764 1.07946 7.45869 0.5 6 0.5Z"
		stroke="#9C97AD" stroke-miterlimit="10" />
	<path
		d="M4.25 4.32156C4.25 4.32156 4.27625 3.77468 4.86156 3.30374C5.20875 3.02406 5.625 2.94312 6 2.93749C6.34156 2.93312 6.64656 2.98968 6.82906 3.07656C7.14156 3.22531 7.75 3.58843 7.75 4.36062C7.75 5.17312 7.21875 5.54218 6.61344 5.94812C6.00813 6.35406 5.84375 6.79468 5.84375 7.24999"
		stroke="#9C97AD" stroke-miterlimit="10" stroke-linecap="round" />
	<path
		d="M5.8125 9.5C6.15768 9.5 6.4375 9.22018 6.4375 8.875C6.4375 8.52982 6.15768 8.25 5.8125 8.25C5.46732 8.25 5.1875 8.52982 5.1875 8.875C5.1875 9.22018 5.46732 9.5 5.8125 9.5Z"
		fill="#9C97AD" />
</svg>