<svg width="22" height="20" viewBox="0 0 22 20" fill="none" xmlns="http://www.w3.org/2000/svg">
	<path fill-rule="evenodd" clip-rule="evenodd"
		d="M3.14401 10.0018C3.14401 4.95178 7.31401 0.861781 12.404 1.00178C17.094 1.13178 21.014 5.05178 21.144 9.74178C21.284 14.8318 17.194 19.0018 12.144 19.0018C10.054 19.0018 8.14401 18.2918 6.62401 17.0918C6.15401 16.7318 6.12401 16.0218 6.54401 15.6018C6.90401 15.2418 7.46401 15.2118 7.86401 15.5218C9.04401 16.4518 10.534 17.0018 12.144 17.0018C16.044 17.0018 19.194 13.8118 19.144 9.90178C19.094 6.18178 15.964 3.05178 12.244 3.00178C8.32401 2.95178 5.14401 6.10178 5.14401 10.0018H6.93401C7.38401 10.0018 7.60401 10.5418 7.29401 10.8518L4.50401 13.6518C4.30401 13.8518 3.99401 13.8518 3.79401 13.6518L1.00401 10.8518C0.684012 10.5418 0.904012 10.0018 1.35401 10.0018H3.14401ZM11.144 6.75178C11.144 6.34178 11.484 6.00178 11.894 6.00178C12.304 6.00178 12.644 6.34178 12.644 6.74178V10.1418L15.524 11.8518C15.874 12.0618 15.994 12.5218 15.784 12.8818C15.574 13.2318 15.114 13.3518 14.754 13.1418L11.634 11.2918C11.334 11.1118 11.144 10.7818 11.144 10.4318V6.75178Z"
		fill="#392F5A" />
</svg>