<svg width="22" height="12" viewBox="0 0 22 12" fill="none" xmlns="http://www.w3.org/2000/svg">
	<path fill-rule="evenodd" clip-rule="evenodd"
		d="M4.76909 0.121098C7.89909 -0.498902 10.6991 1.3111 11.6491 4.0011H19.9991C21.0991 4.0011 21.9991 4.9011 21.9991 6.0011C21.9991 7.1011 21.0991 8.0011 19.9991 8.0011V10.0011C19.9991 11.1011 19.0991 12.0011 17.9991 12.0011C16.8991 12.0011 15.9991 11.1011 15.9991 10.0011V8.0011H11.6491C10.8291 10.3311 8.60909 12.0011 5.99909 12.0011C2.25909 12.0011 -0.680915 8.5711 0.139085 4.7011C0.619085 2.4111 2.47909 0.581098 4.76909 0.121098ZM3.99909 6.0011C3.99909 7.1011 4.89909 8.0011 5.99909 8.0011C7.09909 8.0011 7.99909 7.1011 7.99909 6.0011C7.99909 4.9011 7.09909 4.0011 5.99909 4.0011C4.89909 4.0011 3.99909 4.9011 3.99909 6.0011Z"
		fill="#815CFF" />
</svg>