<svg width="12" height="14" viewBox="0 0 12 14" fill="none" xmlns="http://www.w3.org/2000/svg">
	<path fill-rule="evenodd" clip-rule="evenodd"
		d="M9.99996 4.66667H9.33329V3.33333C9.33329 1.49333 7.83996 0 5.99996 0C4.15996 0 2.66663 1.49333 2.66663 3.33333V4.66667H1.99996C1.26663 4.66667 0.666626 5.26667 0.666626 6V12.6667C0.666626 13.4 1.26663 14 1.99996 14H9.99996C10.7333 14 11.3333 13.4 11.3333 12.6667V6C11.3333 5.26667 10.7333 4.66667 9.99996 4.66667ZM5.99996 10.6667C5.26663 10.6667 4.66663 10.0667 4.66663 9.33333C4.66663 8.6 5.26663 8 5.99996 8C6.73329 8 7.33329 8.6 7.33329 9.33333C7.33329 10.0667 6.73329 10.6667 5.99996 10.6667ZM3.99996 3.33333V4.66667H7.99996V3.33333C7.99996 2.22667 7.10663 1.33333 5.99996 1.33333C4.89329 1.33333 3.99996 2.22667 3.99996 3.33333Z"
		fill="#392F5A" />
</svg>