<svg width="22" height="21" viewBox="0 0 22 21" fill="none" xmlns="http://www.w3.org/2000/svg">
<path fill-rule="evenodd" clip-rule="evenodd" d="M11 3C6 3 1.73 6.11 0 10.5C1.73 14.89 6 18 11 18C16 18 20.27 14.89 22 10.5C20.27 6.11 16 3 11 3ZM11 15.5C8.24 15.5 6 13.26 6 10.5C6 7.74 8.24 5.5 11 5.5C13.76 5.5 16 7.74 16 10.5C16 13.26 13.76 15.5 11 15.5ZM8 10.5C8 8.84 9.34 7.5 11 7.5C12.66 7.5 14 8.84 14 10.5C14 12.16 12.66 13.5 11 13.5C9.34 13.5 8 12.16 8 10.5Z" fill="#C4C1CE"/>
<line x1="1.35355" y1="0.646447" x2="21.3536" y2="20.6464" stroke="#C4C1CE"/>
</svg>
