<svg width="20" height="20" viewBox="0 0 20 20" fill="none" xmlns="http://www.w3.org/2000/svg">
	<path fill-rule="evenodd" clip-rule="evenodd"
		d="M0 10C0 4.48 4.47 0 9.99 0C15.52 0 20 4.48 20 10C20 15.52 15.52 20 9.99 20C4.47 20 0 15.52 0 10ZM10 13.45L13.22 15.39C13.6 15.62 14.06 15.28 13.96 14.85L13.11 11.18L15.94 8.73C16.28 8.44 16.1 7.89 15.66 7.85L11.92 7.53L10.46 4.09C10.29 3.68 9.71 3.68 9.54 4.09L8.08 7.54L4.34 7.86C3.9 7.9 3.72 8.45 4.05 8.74L6.88 11.19L6.03 14.85C5.93 15.28 6.4 15.62 6.78 15.39L10 13.45Z"
		fill="#392F5A" />
</svg>