<svg width="18" height="18" viewBox="0 0 18 18" fill="none" xmlns="http://www.w3.org/2000/svg">
	<path fill-rule="evenodd" clip-rule="evenodd"
		d="M12.1866 11.4716H12.9766L17.2166 15.7316C17.6266 16.1416 17.6266 16.8116 17.2166 17.2216C16.8066 17.6316 16.1366 17.6316 15.7266 17.2216L11.4766 12.9716V12.1816L11.2066 11.9016C9.80658 13.1016 7.89658 13.7216 5.86658 13.3816C3.08658 12.9116 0.866578 10.5916 0.526578 7.79157C0.00657776 3.56157 3.56658 0.00157288 7.79658 0.521573C10.5966 0.861573 12.9166 3.08157 13.3866 5.86157C13.7266 7.89157 13.1066 9.80157 11.9066 11.2016L12.1866 11.4716ZM2.47658 6.97157C2.47658 9.46157 4.48658 11.4716 6.97658 11.4716C9.46658 11.4716 11.4766 9.46157 11.4766 6.97157C11.4766 4.48157 9.46658 2.47157 6.97658 2.47157C4.48658 2.47157 2.47658 4.48157 2.47658 6.97157Z"
		fill="#392F5A" />
</svg>